<?xml version="1.0" standalone="no"?>
<!DOCTYPE svg PUBLIC "-//W3C//DTD SVG 20010904//EN"
 "http://www.w3.org/TR/2001/REC-SVG-20010904/DTD/svg10.dtd">
<svg version="1.0" xmlns="http://www.w3.org/2000/svg"
 width="512.000000pt" height="512.000000pt" viewBox="0 0 512.000000 512.000000"
 preserveAspectRatio="xMidYMid meet">

<g transform="translate(0.000000,512.000000) scale(0.100000,-0.100000)"
fill="#000000" stroke="none">
<path d="M1191 4614 c-229 -49 -384 -217 -426 -458 -8 -49 -15 -100 -15 -115
-1 -21 -12 -32 -61 -61 -162 -92 -293 -265 -340 -448 -18 -71 -19 -117 -19
-907 0 -797 1 -835 20 -909 53 -209 200 -388 394 -481 138 -66 154 -68 549
-72 l357 -5 0 -227 c0 -252 6 -288 61 -354 64 -78 178 -104 280 -64 32 12 160
114 420 332 l373 314 426 4 c470 4 474 4 617 73 126 60 249 174 315 291 l30
53 82 0 c113 0 188 15 273 56 133 63 226 188 259 345 13 62 14 195 12 908 l-4
836 -27 100 c-52 190 -146 355 -281 491 -171 171 -384 274 -626 304 -54 6
-532 10 -1345 9 -1038 0 -1271 -3 -1324 -15z m2729 -327 c211 -57 396 -210
486 -402 71 -154 68 -104 72 -980 2 -434 0 -813 -3 -842 -12 -95 -69 -150
-170 -160 l-55 -6 0 736 c0 472 -4 764 -11 814 -45 328 -304 587 -632 632 -53
7 -480 11 -1304 11 l-1225 0 6 32 c11 54 46 117 79 140 67 48 42 47 1407 45
1188 -3 1290 -4 1350 -20z m-2506 -1356 c128 -63 199 -178 199 -323 0 -64 -5
-87 -31 -141 -69 -148 -215 -228 -377 -206 -114 15 -222 97 -273 207 -22 48
-27 71 -27 142 0 72 5 94 28 145 87 187 300 265 481 176z m1032 -1 c70 -34
130 -95 166 -168 19 -40 23 -63 23 -147 0 -87 -3 -107 -26 -155 -127 -269
-509 -270 -641 -2 -30 61 -33 75 -33 157 1 77 5 98 28 145 90 185 301 260 483
170z m1018 5 c71 -34 137 -99 173 -173 24 -50 28 -69 28 -147 0 -77 -4 -98
-27 -147 -71 -151 -221 -232 -384 -206 -79 12 -143 48 -202 112 -71 79 -95
146 -90 256 3 73 9 94 38 148 48 91 132 158 227 182 65 16 174 5 237 -25z"/>
</g>
</svg>
